<?xml version="1.0" encoding="UTF-8" standalone="no"?>
<!-- Created with Inkscape (http://www.inkscape.org/) -->

<svg
   version="1.1"
   id="svg1"
   width="88.863998"
   height="70.14933"
   viewBox="0 0 88.863998 70.14933"
   sodipodi:docname="logo2.pdf"
   xmlns:inkscape="http://www.inkscape.org/namespaces/inkscape"
   xmlns:sodipodi="http://sodipodi.sourceforge.net/DTD/sodipodi-0.dtd"
   xmlns="http://www.w3.org/2000/svg"
   xmlns:svg="http://www.w3.org/2000/svg">
  <defs
     id="defs1" />
  <sodipodi:namedview
     id="namedview1"
     pagecolor="#ffffff"
     bordercolor="#000000"
     borderopacity="0.25"
     inkscape:showpageshadow="2"
     inkscape:pageopacity="0.0"
     inkscape:pagecheckerboard="0"
     inkscape:deskcolor="#d1d1d1">
    <inkscape:page
       x="0"
       y="0"
       inkscape:label="1"
       id="page1"
       width="88.863998"
       height="70.14933"
       margin="0"
       bleed="0" />
  </sodipodi:namedview>
  <g
     id="g1"
     inkscape:groupmode="layer"
     inkscape:label="1">
    <path
       id="path1"
       d="m 9.4807031,-6.8090938 1.0312499,6.91406255 1.03125,-0.1171875 -1.523437,-10.03125025 -0.1992191,-0.01172 -3.5859375,7.9570317 h -0.058594 l -3.6210937,-7.9570317 -0.1875,0.02344 -1.52343752,10.01953125 1.03125002,0.1171875 1.0078125,-6.91406255 0.082031,-0.011719 3.1875,6.9609375 h 0.082031 l 3.1640625,-6.9609375 z m 13.0664059,6.9492188 1.03125,-0.28125 -4.335937,-10.03125 h -0.257813 l -4.359375,10.03125 1.03125,0.28125 1.253907,-2.9882813 h 4.382812 z m -3.492187,-8.0976563 h 0.105469 l 1.722656,4.125 h -3.5625 z m 8.431641,-2.0859377 -0.398438,0.1171877 V -5e-4 h 1.066406 v -7.6054688 l 0.117188,-0.035156 6.796875,7.76953125 0.398437,-0.1171875 V -9.9145625 h -1.066406 v 7.6289062 l -0.117188,0.023437 z m 12.313476,0.02344 -1.042969,0.2343747 3.503907,5.3671875 V -5e-4 h 1.066406 v -4.4179688 l 3.515625,-5.3671875 -1.042969,-0.2343747 -2.941406,4.5703122 h -0.105469 z m 17.455078,10.160156 1.03125,-0.28125 -4.335937,-10.03125 h -0.257813 l -4.359375,10.03125 1.03125,0.28125 1.253906,-2.9882813 h 4.382813 z M 53.76293,-7.9575313 h 0.105468 l 1.722657,4.125 h -3.5625 z m 0,0"
       style="fill:#c1c1c1;fill-opacity:1;fill-rule:nonzero;stroke:none"
       aria-label="MANYA"
       transform="matrix(1.3333333,0,0,1.3333333,4.32,33.750667)" />
    <path
       id="path2"
       d="M 6.4108359,-7.3462969 8.5553672,0.18885938 H 8.9420859 L 12.422555,-9.7837969 11.414742,-10.018172 8.9186484,-2.4947344 H 8.8014609 L 6.5280234,-10.076766 h -0.375 L 3.9616172,-2.4947344 H 3.8444297 L 1.2545859,-10.018172 0.25849219,-9.7837969 3.7623984,0.18885938 h 0.375 L 6.3170859,-7.3462969 Z m 0,0"
       style="fill:#6d6d6d;fill-opacity:1;fill-rule:nonzero;stroke:none"
       aria-label="W"
       transform="matrix(1.3333333,0,0,1.3333333,67.628,17.756)" />
    <path
       id="path3"
       d="m 8.4037656,0.14010938 1.03125,-0.28125 L 5.0990781,-10.172391 H 4.8412656 L 0.48189063,-0.14114062 1.5131406,0.14010938 2.7670469,-2.8481719 H 7.1498594 Z M 4.9115781,-7.9575469 h 0.1054688 l 1.7226562,4.125 h -3.5625 z m 0,0"
       style="fill:#6d6d6d;fill-opacity:1;fill-rule:nonzero;stroke:none"
       aria-label="A"
       transform="matrix(1.3333333,0,0,1.3333333,69.474667,33.696)" />
    <path
       id="path4"
       d="M 1.2995234,-10.018992 0.25655469,-9.7846172 3.7604609,-4.4174297 V 5.390625e-4 H 4.8268672 V -4.4174297 L 8.3424922,-9.7846172 7.2995234,-10.018992 4.3581172,-5.4486797 H 4.2526484 Z m 0,0"
       style="fill:#6d6d6d;fill-opacity:1;fill-rule:nonzero;stroke:none"
       aria-label="Y"
       transform="matrix(1.3333333,0,0,1.3333333,70.349333,49.636)" />
    <path
       id="path5"
       d="m 0.66671875,-0.84508594 c 0.48046875,0.52734375 1.54687505,1.03125 2.90625005,1.03125 1.734375,0 3.046875,-0.890625 3.046875,-2.63671876 0,-1.2421875 -0.703125,-2.109375 -2.4492188,-3.0585937 -1.7226562,-0.9492188 -2.1914062,-1.40625 -2.1914062,-2.1914063 0,-0.8320312 0.5742187,-1.3828125 1.8632812,-1.3828125 0.8203125,0 1.5820313,0.3164063 2.1796875,0.84375 L 6.37375,-9.1888359 C 5.8464063,-9.6224297 4.9089063,-10.102898 3.8307813,-10.102898 c -2.0039063,0 -2.92968755,1.2656246 -2.92968755,2.5078121 0,1.3007812 0.80859375,1.8164062 2.71875005,2.9296875 1.3476562,0.7851562 1.8867187,1.3359375 1.8867187,2.2265625 0,0.8789062 -0.5507812,1.60546871 -1.9101562,1.60546871 -1.1015625,0 -1.9101563,-0.38671871 -2.5664063,-1.00781251 z m 0,0"
       style="fill:#6d6d6d;fill-opacity:1;fill-rule:nonzero;stroke:none"
       aria-label="S"
       transform="matrix(1.3333333,0,0,1.3333333,71.126667,65.576)" />
  </g>
</svg>
